<?xml version="1.0" encoding="UTF-8" standalone="no"?> <!-- Created with Vectornator for iOS (http://vectornator.io/) --><!DOCTYPE svg PUBLIC "-//W3C//DTD SVG 1.1//EN" "http://www.w3.org/Graphics/SVG/1.1/DTD/svg11.dtd">
<svg style="fill-rule:evenodd;clip-rule:evenodd;stroke-linecap:round;stroke-linejoin:round;" xmlns:vectornator="http://vectornator.io" xmlns:xlink="http://www.w3.org/1999/xlink" xmlns="http://www.w3.org/2000/svg" xml:space="preserve" version="1.1" viewBox="0 0 110 110">
<defs/>
<g id="Layer 1" vectornator:layerName="Layer 1">
<path stroke="#247fbf" fill-rule="evenodd" stroke-width="1" d="M59.9531+102.558L55.6279+105.238C55.2647+105.463+54.6766+105.461+54.3143+105.235L50.0343+102.561C49.6719+102.335+49.1828+101.865+48.9417+101.513L32.9329+78.0965C32.6918+77.7439+32.2017+77.6399+31.8381+77.8643L21.9007+83.9981C21.5372+84.2225+20.9479+84.2224+20.5844+83.9978L10.658+77.8646C10.2946+77.64+10+77.1117+10+76.6845L10+33.2597C10+32.8325+10.2966+32.3075+10.6626+32.087L43.032+12.5845C43.3979+12.364+43.6945+12.5316+43.6945+12.9588L43.6945+23.7595C43.6945+24.1867+43.3981+24.7121+43.0325+24.9331L21.9045+37.7021C21.5389+37.923+21.2425+38.4485+21.2425+38.8757L21.2425+41.1966L21.2425+68.8791C21.2425+69.3063+21.5387+69.4732+21.9041+69.2518L31.8348+63.2357C32.2001+63.0144+32.6914+63.1211+32.9321+63.4741L48.9425+86.9568C49.1832+87.3097+49.3782+87.2496+49.3782+86.8224L49.3782+8.5255C49.3782+8.0983+49.6743+7.57238+50.0396+7.35084L54.3089+4.76136C54.6742+4.53982+55.2671+4.53869+55.6332+4.75884L60.6107+7.75198L99.3449+32.0748C99.7067+32.302+100+32.8325+100+33.2597L100+76.6845C100+77.1117+99.7029+77.6359+99.3364+77.8554L66.8433+97.3155C66.4768+97.535+66.1797+97.3667+66.1797+96.9395L66.1797+85.178C66.1797+84.7508+66.4825+84.2363+66.8559+84.0289L88.0834+72.2412C88.4569+72.0338+88.7597+71.5193+88.7597+71.0921L88.7597+38.8757C88.7597+38.4485+88.4644+37.9211+88.1002+37.6978L61.348+21.2938C60.9838+21.0705+60.6883+21.2358+60.6879+21.663L60.6115+101.378C60.611+101.805+60.3163+102.333+59.9531+102.558Z" fill="#ffffff" stroke-linecap="round" opacity="1" stroke-linejoin="round"/>
</g>
</svg>
