<?xml version="1.0" encoding="UTF-8" standalone="no"?> <!-- Created with Vectornator for iOS (http://vectornator.io/) --><!DOCTYPE svg PUBLIC "-//W3C//DTD SVG 1.1//EN" "http://www.w3.org/Graphics/SVG/1.1/DTD/svg11.dtd">
<svg style="fill-rule:evenodd;clip-rule:evenodd;stroke-linecap:round;stroke-linejoin:round;" xmlns:vectornator="http://vectornator.io" xmlns:xlink="http://www.w3.org/1999/xlink" xmlns="http://www.w3.org/2000/svg" xml:space="preserve" version="1.1" viewBox="0 0 400 400">
<defs/>
<g id="Layer 3 Left" vectornator:layerName="Layer 3 Left">
<path stroke="#ffffff" fill-rule="evenodd" stroke-width="1" d="M200.126+380.227L180.242+367.804L120.214+280.001L80.1979+304.701L40.2223+280.001L40.2223+120.092L80.1979+140.061L80.1979+252.247L120.214+228.005L180.242+316.049L180.242+190.139L200.065+200.155L200.126+380.227Z" fill="#333333" stroke-linecap="round" opacity="1" stroke-linejoin="round"/>
</g>
<g id="Layer 2 Right" vectornator:layerName="Layer 2 Right">
<path stroke="#ffffff" fill-rule="evenodd" stroke-width="1" d="M360.241+120.092L360.241+280.001L239.984+352.023L239.984+304.701L320.273+260.116L320.273+140.061L360.241+120.092Z" fill="#247fbf" stroke-linecap="round" opacity="1" stroke-linejoin="round"/>
<path stroke="#ffffff" fill-rule="evenodd" stroke-width="1" d="M220.182+367.804L200.126+380.227L200+200.155L220.351+190.139L220.182+367.804Z" fill="#247fbf" stroke-linecap="round" opacity="1" stroke-linejoin="round"/>
</g>
<g id="Layer 1 Top" vectornator:layerName="Layer 1 Top">
<path stroke="#ffffff" fill-rule="evenodd" stroke-width="1" d="M220.351+190.139L200+200.155L196.081+198.15L180.242+190.139L180.242+32.143L200.126+20.0827L220.182+32.143L360.241+120.092L320.273+140.061L220.459+78.8568L220.351+190.139Z" fill="#ffffff" stroke-linecap="round" opacity="1" stroke-linejoin="round"/>
<path stroke="#ffffff" fill-rule="evenodd" stroke-width="1" d="M40.2223+120.092L160.032+47.9068L160.032+91.8124L80.1979+140.061L40.2223+120.092Z" fill="#ffffff" stroke-linecap="round" opacity="1" stroke-linejoin="round"/>
</g>
</svg>
