<?xml version="1.0" encoding="UTF-8" standalone="no"?> <!-- Created with Vectornator for iOS (http://vectornator.io/) --><!DOCTYPE svg PUBLIC "-//W3C//DTD SVG 1.1//EN" "http://www.w3.org/Graphics/SVG/1.1/DTD/svg11.dtd">
<svg style="fill-rule:evenodd;clip-rule:evenodd;stroke-linecap:round;stroke-linejoin:round;" xmlns:vectornator="http://vectornator.io" xmlns:xlink="http://www.w3.org/1999/xlink" xmlns="http://www.w3.org/2000/svg" xml:space="preserve" version="1.1" viewBox="0 0 180 180">
<defs/>
<g id="Layer 1" vectornator:layerName="Layer 1">
<path stroke="#ffffff" stroke-width="1" d="M89.9375+3.1875C89.5206+3.18829+89.1302+3.3073+88.8125+3.5L81.4688+7.9375C80.8333+8.3229+80.3136+9.22558+80.3125+9.96875L80.2188+79.125L31.875+79.125L31.875+66.2188L31.875+62.25C31.875+61.5068+32.364+60.5719+33+60.1875L69.375+38.2188C70.011+37.8344+70.5312+36.9307+70.5312+36.1875L70.5312+17.5938C70.5312+17.2222+70.3961+16.9928+70.1875+16.875C69.9789+16.7572+69.6933+16.777+69.375+16.9688L13.6562+50.5312C13.0197+50.9148+12.5+51.8193+12.5+52.5625L12.5+127.344C12.5+128.087+13.024+128.984+13.6562+129.375L30.7188+139.938C31.351+140.328+32.3676+140.328+33+139.938L50.0938+129.375C50.7262+128.985+51.5806+129.168+52+129.781L79.5625+170.094C79.9819+170.707+80.8385+171.512+81.4688+171.906L88.8125+176.5C89.4428+176.894+90.462+176.891+91.0938+176.5L98.5312+171.906C99.163+171.515+99.6555+170.587+99.6562+169.844L99.7188+100.875L148.156+100.875L148.156+117.688C148.156+118.431+147.618+119.327+146.969+119.688L110.438+140C109.788+140.361+109.25+141.257+109.25+142L109.25+162.219C109.25+162.962+109.769+163.257+110.406+162.875L166.344+129.375C166.981+128.993+167.5+128.087+167.5+127.344L167.5+52.5625C167.5+51.8193+167.004+50.8952+166.375+50.5L99.6562+8.625L91.0938+3.46875C90.7753+3.27726+90.3544+3.18671+89.9375+3.1875ZM100.125+31.8438C100.335+31.7318+100.621+31.7745+100.938+31.9688L147+60.1875C147.634+60.576+148.156+61.5068+148.156+62.25L148.156+79.125L99.75+79.125L99.7812+32.5938C99.7816+32.2222+99.9152+31.9557+100.125+31.8438ZM31.875+100.875L80.25+100.875L80.3125+144.781C80.3139+145.524+79.9811+145.645+79.5625+145.031L52+104.594C51.5814+103.98+50.7294+103.802+50.0938+104.188L33+114.531C32.3644+114.916+31.875+114.618+31.875+113.875L31.875+100.875Z" fill="#ffffff" fill-opacity="0" stroke-linecap="round" opacity="1" stroke-linejoin="round"/>
<text x="0" font-family="MicrosoftSansSerif" y="0" text-anchor="middle" vectornator:text="RESUME" fill="#222222" font-size="37" vectornator:width="169.618" opacity="1" transform="matrix(0.896357 0 0 0.48318 13.9811 79.6116)">
<tspan x="84.8088" y="34" textLength="166.618">
RESUME</tspan>
</text>
</g>
</svg>
